#!OML:ASF E:\Steps\Project 1\Capture day 1\Session 2\Subject.ASF
:FULLY-SPECIFIED
:DEGREES
2686
root 10.3062 16.5247 4.32793 27.4406 -3.16337 -1.79332
lowerback -19.2837 -3.75696 -7.30719
upperback 3.91099 -3.11312 -0.597962
thorax 15.8338 -2.04189 2.44183
lowerneck 2.04733 1.27407 -3.31335
upperneck 27.443 0.452103 5.91861
head 8.09375 0.313703 2.58394
rclavicle 4.92986e-014 3.18055e-015
rhumerus -47.5359 6.46106 -78.7577
rradius 59.9739
rwrist -5.33539
rhand -1.247 -777.387
rfingers 7.12502
rthumb 24.3954 994.146
lclavicle 4.92986e-014 3.18055e-015
lhumerus -23.2762 -10.5522 71.8916
lradius 50.125
lwrist 0.880714
lhand -21.9232 -11.5168
lfingers 7.12502
lthumb 4.48289 -341.584
rfemur -40.7722 9.51587 13.413
rtibia 29.9645
rfoot -23.3231 -6.59178
rtoes -33.7531
lfemur -29.2021 -2.63239 -16.5365
ltibia 3.98774
lfoot -3.72787 5.62751
ltoes -25.6148
2687
root 10.2837 16.5251 4.33126 27.1648 -3.09901 -1.75092
lowerback -19.2637 -3.74142 -7.16659
upperback 3.91931 -3.13012 -0.593319
thorax 15.8233 -2.03682 2.36296
lowerneck 3.13492 1.55646 -4.06212
upperneck 26.6805 0.69881 6.73642
head 7.61198 0.408068 2.97434
rclavicle -1.51076e-014 -1.27222e-014
rhumerus -47.3825 6.66336 -78.8974
rradius 59.9965
rwrist -5.33654
rhand -1.30183 -777.507
rfingers 7.12502
rthumb 24.3429 994.019
lclavicle -1.51076e-014 -1.27222e-014
lhumerus -23.033 -10.5023 72.3467
lradius 50.8147
lwrist 1.34964
lhand -22.4223 -11.7964
lfingers 7.12502
lthumb 4.001 -341.854
rfemur -40.5361 9.54363 13.5109
rtibia 29.1154
rfoot -23.0092 -6.9104
rtoes -34.7437
lfemur -28.8282 -2.83363 -16.4443
ltibia 3.85922
lfoot -3.69825 5.76501
ltoes -26.5525
2688
root 10.26 16.526 4.33811 26.8577 -2.99559 -1.73484
lowerback -19.3478 -3.71661 -7.01042
upperback 3.99181 -3.12974 -0.57093
thorax 15.9529 -2.02746 2.29422
lowerneck 3.337 1.5559 -5.26105
upperneck 25.4211 0.292214 9.17329
head 7.1355 0.286571 3.94605
rclavicle 1.74931e-014 -1.11319e-014
rhumerus -47.043 6.89326 -79.0141
rradius 59.9686
rwrist -5.30171
rhand -1.48407 -777.557
rfingers 7.12502
rthumb 24.1681 993.946
lclavicle 1.74931e-014 -1.11319e-014
lhumerus -22.6959 -10.4715 72.759
lradius 51.4781
lwrist 1.92084
lhand -22.5811 -12.1242
lfingers 7.12502
lthumb 3.84767 -342.179
rfemur -40.2442 9.43418 13.772
rtibia 28.779
rfoot -23.2121 -7.09751
rtoes -34.5208
lfemur -28.4442 -2.81202 -16.3994
ltibia 3.79409
lfoot -3.68301 5.62782
ltoes -27.082
2689
root 10.2372 16.5257 4.34224 26.5411 -2.92181 -1.68648
lowerback -19.425 -3.70279 -6.86777
upperback 4.09209 -3.13617 -0.578703
thorax 16.1125 -2.02113 2.19509
lowerneck 2.9663 1.49323 -4.02357
upperneck 26.6912 0.554276 7.01562
head 7.64992 0.369381 3.05658
rclavicle 1.90833e-014 -2.8625e-014
rhumerus -46.5905 6.97989 -79.1184
rradius 59.9939
rwrist -5.23067
rhand -1.43343 -778.26
rfingers 7.12502
rthumb 24.2167 993.249
lclavicle 1.90833e-014 -2.8625e-014
lhumerus -22.5275 -10.2915 73.1018
lradius 52.3814
lwrist 2.34289
lhand -22.7212 -12.6384
lfingers 7.12502
lthumb 3.71233 -342.691
rfemur -40.012 9.20125 14.0206
rtibia 28.5725
rfoot -23.5071 -6.84151
rtoes -31.4926
lfemur -28.1095 -2.82219 -16.385
ltibia 3.83743
lfoot -3.69945 5.55211
ltoes -26.8885
2690
root 10.2141 16.5257 4.34607 26.3159 -2.80989 -1.59904
lowerback -19.5286 -3.72151 -6.74559
upperback 4.12494 -3.18041 -0.593741
thorax 16.2108 -2.03009 2.08754
lowerneck 4.94522 1.59537 -5.02362
upperneck 24.4633 0.423443 8.73097
head 6.54414 0.299077 3.71935
rclavicle -1.82882e-014 7.95139e-015
rhumerus -46.2657 7.18087 -79.2709
rradius 60.1266
rwrist -5.11032
rhand -1.02262 -778.364
rfingers 7.12502
rthumb 24.6105 993.198
lclavicle -1.82882e-014 7.95139e-015
lhumerus -22.3963 -10.2603 73.4201
lradius 53.1225
lwrist 2.99842
lhand -23.1893 -13.0775
lfingers 7.12502
lthumb 3.26027 -343.123
rfemur -39.8302 8.89078 14.2275
rtibia 28.4028
rfoot -23.5504 -6.50223
rtoes -29.0023
lfemur -27.9484 -2.85003 -16.4153
ltibia 4.01585
lfoot -3.7549 5.45843
ltoes -27.3784
